<svg width="41" height="26" viewBox="0 0 41 26" fill="none" xmlns="http://www.w3.org/2000/svg">
<path d="M32.3478 15.0987L32.3477 15.0986C31.4584 14.3113 31.3393 12.9207 32.1822 12.014L32.1825 12.0137C35.53 8.41656 38.1549 4.33243 39.0282 1.966C39.1897 1.52757 38.8599 1.00839 38.3209 1.00839H34.8238C33.9306 1.00839 33.6798 1.30229 33.5738 1.51945L32.696 1.09111L33.5738 1.51946C30.6926 7.42339 28.1882 10.0379 26.3858 11.5938L32.3478 15.0987ZM32.3478 15.0987C32.5168 15.2483 32.7062 15.4141 32.9121 15.5945C33.8111 16.382 35.0254 17.4458 36.2349 18.6302C37.7346 20.0988 39.1422 21.6731 39.9049 23.0457C40.1726 23.5284 39.8278 24.1672 39.2108 24.1672H34.5769C34.2325 24.1672 33.9266 23.9872 33.7666 23.7089L33.7663 23.7086M32.3478 15.0987L33.7663 23.7086M16.0455 2.48468C16.5655 3.17938 16.8467 4.02279 16.8467 4.88919V4.89001L16.8411 11.7081L16.0455 2.48468ZM16.0455 2.48468L15.0176 1.00909L21.3385 1.081L21.3385 1.08107H21.3499C21.8851 1.08107 22.302 1.50742 22.302 2.01457V2.02749V2.04043V2.0534V2.06638V2.07939V2.09241V2.10546V2.11852V2.13161V2.14471V2.15784V2.17098V2.18415V2.19733V2.21054V2.22376V2.23701V2.25027V2.26355V2.27686V2.29018V2.30352V2.31688V2.33026V2.34365V2.35707V2.37051V2.38396V2.39743V2.41092V2.42443V2.43796V2.45151V2.46508V2.47866V2.49226V2.50588V2.51952V2.53317V2.54685V2.56054V2.57425V2.58797V2.60172V2.61548V2.62926V2.64306V2.65687V2.6707V2.68455V2.69842V2.7123V2.7262V2.74011V2.75405V2.768V2.78196V2.79595V2.80995V2.82396V2.838V2.85204V2.86611V2.88019V2.89429V2.9084V2.92253V2.93668V2.95084V2.96501V2.97921V2.99341V3.00764V3.02188V3.03613V3.0504V3.06468V3.07898V3.0933V3.10763V3.12197V3.13633V3.15071V3.1651V3.1795V3.19392V3.20835V3.2228V3.23726V3.25174V3.26623V3.28073V3.29525V3.30979V3.32433V3.33889V3.35347V3.36805V3.38266V3.39727V3.4119V3.42654V3.4412V3.45587V3.47055V3.48524V3.49995V3.51467V3.52941V3.54415V3.55891V3.57369V3.58847V3.60327V3.61808V3.6329V3.64774V3.66258V3.67744V3.69231V3.7072V3.72209V3.737V3.75192V3.76685V3.78179V3.79675V3.81172V3.82669V3.84168V3.85668V3.87169V3.88672V3.90175V3.9168V3.93185V3.94692V3.962V3.97708V3.99218V4.00729V4.02241V4.03754V4.05269V4.06784V4.083V4.09817V4.11335V4.12855V4.14375V4.15896V4.17418V4.18941V4.20466V4.21991V4.23517V4.25044V4.26572V4.28101V4.2963V4.31161V4.32693V4.34225V4.35759V4.37293V4.38828V4.40364V4.41901V4.43439V4.44978V4.46517V4.48058V4.49599V4.51141V4.52684V4.54227V4.55772V4.57317V4.58863V4.6041V4.61958V4.63506V4.65055V4.66605V4.68156V4.69707V4.71259V4.72812V4.74365V4.7592V4.77475V4.7903V4.80587V4.82144V4.83701V4.8526V4.86819V4.88378V4.89939V4.915V4.93061V4.94624V4.96186V4.9775V4.99314V5.00879V5.02444V5.0401V5.05576V5.07143V5.08711V5.10279V5.11847V5.13416V5.14986V5.16556V5.18127V5.19698V5.2127V5.22842V5.24415V5.25988V5.27562V5.29136V5.30711V5.32286V5.33861V5.35437V5.37013V5.3859V5.40167V5.41745V5.43323V5.44902V5.4648V5.48059V5.49639V5.51219V5.52799V5.5438V5.55961V5.57542V5.59124V5.60706V5.62288V5.63871V5.65453V5.67037V5.6862V5.70204V5.71788V5.73372V5.74957V5.76542V5.78127V5.79712V5.81297V5.82883V5.84469V5.86055V5.87642V5.89228V5.90815V5.92402V5.93989V5.95576V5.97163V5.98751V6.00339V6.01927V6.03514V6.05103V6.06691V6.08279V6.09867V6.11456V6.13045V6.14633V6.16222V6.17811V6.194V6.20988V6.22577V6.24166V6.25755V6.27344V6.28933V6.30523V6.32112V6.33701V6.3529V6.36879V6.38468V6.40057V6.41645V6.43234V6.44823V6.46412V6.48V6.49589V6.51177V6.52766V6.54354V6.55942V6.5753V6.59118V6.60706V6.62294V6.63881V6.65469V6.67056V6.68643V6.7023V6.71816V6.73403V6.74989V6.76575V6.78161V6.79747V6.81332V6.82918V6.84503V6.86087V6.87672V6.89256V6.9084V6.92424V6.94007V6.9559V6.97173V6.98756V7.00338V7.0192V7.03501V7.05083V7.06664V7.08244V7.09824V7.11404V7.12984V7.14563V7.16142V7.1772V7.19298V7.20875V7.22453V7.24029V7.25606V7.27181V7.28757V7.30332V7.31906V7.3348V7.35054V7.36627V7.382V7.39772V7.41343V7.42915V7.44485V7.46055V7.47625V7.49194V7.50763V7.52331V7.53898V7.55465V7.57031V7.58597V7.60162V7.61726V7.6329V7.64854V7.66417V7.67979V7.6954V7.71101V7.72661V7.74221V7.7578V7.77338V7.78895V7.80452V7.82009V7.83564V7.85119V7.86673V7.88226V7.89779V7.91331V7.92882V7.94433V7.95983V7.97532V7.9908V8.00627V8.02174V8.0372V8.05265V8.06809V8.08353V8.09895V8.11437V8.12978V8.14519V8.16058V8.17596V8.19134V8.20671V8.22207V8.23742V8.25276V8.26809V8.28342V8.29873V8.31404V8.32933V8.34462V8.3599V8.37517V8.39043V8.40567V8.42091V8.43614V8.45136V8.46658V8.48178V8.49697V8.51215V8.52732V8.54248V8.55763V8.57277V8.58789V8.60301V8.61812V8.63322V8.6483V8.66338V8.67844V8.6935V8.70854V8.72357V8.73859V8.7536V8.7686V8.78359V8.79856V8.81353V8.82848V8.84342V8.85835V8.87327V8.88817V8.90307V8.91795V8.93282V8.94767V8.96252V8.97735V8.99217V9.00698V9.02178V9.03656V9.05133V9.06608V9.08083V9.09556V9.11028V9.12499V9.13968V9.15436V9.16902V9.18368V9.19832V9.21294V9.22756V9.24216V9.25674V9.27131V9.28587V9.30041V9.31494V9.32946V9.34396V9.35845V9.37292V9.38738V9.40183V9.41626V9.43067V9.44508V9.45946V9.47383V9.48819V9.50253V9.51686V9.53117V9.54547V9.55975V9.57402V9.58827V9.6025V9.61673V9.63093V9.64512V9.65929V9.67345V9.68759V9.70172V9.71583V9.72993C22.302 11.8361 24.79 12.9716 26.3856 11.5939L16.0455 2.48468ZM12.8521 13.3592L12.8521 13.3592C11.2924 11.8402 9.88517 9.58794 8.76895 7.42628C7.64489 5.24946 6.77227 3.07825 6.3044 1.65387L6.30434 1.65368C6.17964 1.27378 5.82097 1.00931 5.40262 1.00838L5.40239 1.00838L1.95994 1C1.9596 1 1.95927 1 1.95893 1C1.31235 1.00063 0.871466 1.60828 1.03573 2.18518M12.8521 13.3592L21.2878 24.1627C10.4381 23.0882 4.1615 13.1568 1.03573 2.18518M12.8521 13.3592C14.3056 14.7746 16.8404 13.8257 16.8411 11.709L12.8521 13.3592ZM1.03573 2.18518L0.0740192 2.45902L1.03573 2.18518ZM33.7663 23.7086C33.1313 22.6052 31.9278 20.9055 30.4739 19.4677C29.7454 18.7473 28.9304 18.0688 28.069 17.5656C27.2127 17.0653 26.2526 16.7043 25.2532 16.7043C25.2192 16.7043 25.1702 16.7043 25.119 16.7056M33.7663 23.7086L21.2882 24.1627C21.8186 24.2148 22.302 23.7807 22.302 23.2262V19.6425C22.302 18.1078 23.5057 16.7462 25.119 16.7056M25.119 16.7056L25.1442 17.7053L25.1186 16.7056C25.1187 16.7056 25.1189 16.7056 25.119 16.7056Z" stroke="white" stroke-width="2"/>
</svg>
