<svg width="44" height="28" viewBox="0 0 44 28" fill="none" xmlns="http://www.w3.org/2000/svg">
<path d="M34.7637 16.1489L34.7635 16.1488C33.8386 15.3299 33.7156 13.8847 34.591 12.9431L34.5913 12.9428C38.1875 9.07837 41.0113 4.68716 41.9531 2.13519C42.1449 1.61479 41.7525 1.009 41.1254 1.009H37.3724C36.3948 1.009 36.0946 1.33318 35.9651 1.59855L35.0664 1.16L35.9651 1.59857C32.8772 7.92604 30.1955 10.7238 28.269 12.3868L34.7637 16.1489ZM34.7637 16.1489C34.9447 16.3091 35.1477 16.4869 35.3684 16.6803C36.3332 17.5254 37.6383 18.6686 38.938 19.9414C40.5482 21.5181 42.0653 23.2138 42.8893 24.6967C43.2046 25.2652 42.7964 26.009 42.0804 26.009H37.1074C36.7122 26.009 36.3594 25.8025 36.1743 25.4805L36.1741 25.4802M34.7637 16.1489L36.1741 25.4802M22.901 1.087L22.901 1.08694L16.0534 1.00903C16.0425 1.00927 16.0366 1.01077 16.0344 1.01143C16.0317 1.01221 16.03 1.01308 16.0284 1.01409C16.0247 1.0165 16.0178 1.0226 16.0124 1.03345C16.0069 1.04429 16.0069 1.05159 16.007 1.05257L16.0072 1.05352C16.0074 1.05403 16.0092 1.05886 16.016 1.06784L16.0278 1.0834L16.0389 1.0994L17.1604 2.70934C17.7095 3.44245 18.0064 4.33261 18.0064 5.247V5.24782L18.0004 12.565L22.901 1.087ZM22.901 1.087H22.9124M22.901 1.087H22.9124M22.9124 1.087C23.5265 1.087 24.0074 1.57663 24.0074 2.162V2.17587V2.18976V2.20367V2.21761V2.23156V2.24554V2.25954V2.27356V2.28761V2.30167V2.31576V2.32986V2.34399V2.35814V2.37232V2.38651V2.40072V2.41495V2.42921V2.44349V2.45778V2.4721V2.48644V2.50079V2.51517V2.52957V2.54399V2.55843V2.57289V2.58737V2.60186V2.61638V2.63092V2.64548V2.66006V2.67465V2.68927V2.70391V2.71856V2.73324V2.74793V2.76264V2.77737V2.79212V2.80689V2.82168V2.83649V2.85131V2.86615V2.88102V2.8959V2.91079V2.92571V2.94065V2.9556V2.97057V2.98556V3.00057V3.01559V3.03063V3.04569V3.06077V3.07586V3.09097V3.1061V3.12125V3.13641V3.15159V3.16679V3.182V3.19724V3.21248V3.22775V3.24303V3.25833V3.27364V3.28897V3.30432V3.31968V3.33506V3.35045V3.36586V3.38129V3.39673V3.41219V3.42766V3.44315V3.45866V3.47418V3.48971V3.50527V3.52083V3.53641V3.55201V3.56762V3.58325V3.59889V3.61454V3.63021V3.6459V3.6616V3.67731V3.69304V3.70878V3.72454V3.74031V3.75609V3.77189V3.7877V3.80353V3.81937V3.83522V3.85109V3.86697V3.88286V3.89877V3.91469V3.93063V3.94657V3.96253V3.97851V3.99449V4.01049V4.0265V4.04252V4.05856V4.07461V4.09067V4.10675V4.12283V4.13893V4.15504V4.17116V4.1873V4.20344V4.2196V4.23577V4.25195V4.26814V4.28435V4.30056V4.31679V4.33303V4.34928V4.36554V4.38181V4.39809V4.41439V4.43069V4.447V4.46333V4.47967V4.49601V4.51237V4.52874V4.54511V4.5615V4.5779V4.59431V4.61072V4.62715V4.64359V4.66004V4.67649V4.69296V4.70943V4.72592V4.74241V4.75892V4.77543V4.79195V4.80848V4.82502V4.84157V4.85813V4.8747V4.89127V4.90785V4.92445V4.94105V4.95765V4.97427V4.9909V5.00753V5.02417V5.04082V5.05748V5.07414V5.09081V5.10749V5.12418V5.14088V5.15758V5.17429V5.19101V5.20773V5.22446V5.2412V5.25795V5.2747V5.29146V5.30822V5.32499V5.34177V5.35856V5.37535V5.39215V5.40895V5.42576V5.44258V5.4594V5.47623V5.49306V5.5099V5.52675V5.5436V5.56046V5.57732V5.59419V5.61106V5.62794V5.64482V5.66171V5.6786V5.6955V5.7124V5.72931V5.74623V5.76314V5.78006V5.79699V5.81392V5.83086V5.8478V5.86474V5.88169V5.89864V5.91559V5.93255V5.94952V5.96648V5.98345V6.00043V6.0174V6.03439V6.05137V6.06836V6.08535V6.10234V6.11934V6.13634V6.15334V6.17034V6.18735V6.20436V6.22137V6.23839V6.25541V6.27243V6.28945V6.30648V6.3235V6.34053V6.35756V6.37459V6.39163V6.40866V6.4257V6.44274V6.45978V6.47682V6.49386V6.51091V6.52795V6.545V6.56205V6.5791V6.59615V6.6132V6.63025V6.6473V6.66435V6.6814V6.69845V6.71551V6.73256V6.74961V6.76667V6.78372V6.80077V6.81783V6.83488V6.85193V6.86898V6.88604V6.90309V6.92014V6.93719V6.95424V6.97129V6.98833V7.00538V7.02242V7.03947V7.05651V7.07355V7.09059V7.10763V7.12467V7.1417V7.15874V7.17577V7.1928V7.20983V7.22685V7.24388V7.2609V7.27792V7.29494V7.31195V7.32896V7.34597V7.36298V7.37999V7.39699V7.41399V7.43098V7.44798V7.46497V7.48195V7.49894V7.51592V7.53289V7.54987V7.56683V7.5838V7.60076V7.61772V7.63468V7.65163V7.66857V7.68552V7.70246V7.71939V7.73632V7.75325V7.77017V7.78708V7.80399V7.8209V7.8378V7.8547V7.87159V7.88848V7.90536V7.92224V7.93911V7.95598V7.97284V7.9897V8.00655V8.02339V8.04023V8.05706V8.07389V8.09071V8.10753V8.12434V8.14114V8.15794V8.17473V8.19151V8.20829V8.22506V8.24182V8.25858V8.27533V8.29208V8.30881V8.32554V8.34227V8.35898V8.37569V8.39239V8.40908V8.42577V8.44245V8.45912V8.47578V8.49244V8.50909V8.52573V8.54236V8.55898V8.5756V8.5922V8.6088V8.62539V8.64197V8.65855V8.67511V8.69167V8.70822V8.72475V8.74128V8.7578V8.77431V8.79082V8.80731V8.82379V8.84027V8.85673V8.87319V8.88963V8.90607V8.92249V8.93891V8.95531V8.97171V8.9881V9.00447V9.02084V9.03719V9.05354V9.06987V9.08619V9.10251V9.11881V9.1351V9.15138V9.16765V9.18391V9.20016V9.21639V9.23262V9.24883V9.26503V9.28122V9.2974V9.31357V9.32972V9.34587V9.362V9.37812V9.39423V9.41032V9.42641V9.44248V9.45854V9.47458V9.49062V9.50664V9.52265V9.53864V9.55463V9.5706V9.58656V9.6025V9.61843V9.63435V9.65026V9.66615V9.68202V9.69789V9.71374V9.72958V9.7454V9.76121V9.77701V9.79279V9.80856V9.82431V9.84005V9.85578V9.87149V9.88718V9.90287V9.91853V9.93419V9.94982V9.96545V9.98106V9.99665V10.0122V10.0278V10.0433V10.0589V10.0744V10.0899V10.1054V10.1208V10.1363V10.1517V10.1672V10.1826V10.198V10.2133V10.2287V10.244V10.2594V10.2747V10.29V10.3053V10.3205V10.3358V10.351V10.3662V10.3814V10.3966V10.4117V10.4269V10.442C24.0074 12.6395 26.6037 13.8247 28.2688 12.387L22.9124 1.087ZM13.8437 14.2844L13.8437 14.2844C12.1783 12.6626 10.6725 10.2538 9.47572 7.93619C8.27115 5.60345 7.33619 3.27693 6.83532 1.75207L6.83525 1.75188C6.69146 1.31381 6.2783 1.01006 5.79817 1.009L5.79794 1.009L2.10338 1C2.10303 1 2.10269 1 2.10235 1C1.36118 1.00064 0.851173 1.69797 1.04115 2.36514M13.8437 14.2844L22.8385 26.0038C11.1465 24.8459 4.39727 14.1454 1.04115 2.36514M13.8437 14.2844C15.3596 15.7606 17.9997 14.7694 18.0004 12.5658L13.8437 14.2844ZM1.04115 2.36514L0.0794881 2.63897L1.04115 2.36514ZM36.1741 25.4802C35.4954 24.3009 34.2077 22.4823 32.6527 20.9445C31.8736 20.174 31.0038 19.4503 30.0863 18.9143C29.1739 18.3812 28.1565 18 27.1014 18H27.0973C27.0607 18 27.0107 18 26.9587 18.0013C25.2698 18.0441 24.0074 19.4702 24.0074 21.08V24.926C24.0074 25.5632 23.4523 26.0641 22.8389 26.0039L36.1741 25.4802Z" stroke="white" stroke-width="2"/>
</svg>
